<?xml version="1.0" standalone="no"?>
<!DOCTYPE svg PUBLIC "-//W3C//DTD SVG 20010904//EN"
 "http://www.w3.org/TR/2001/REC-SVG-20010904/DTD/svg10.dtd">
<svg version="1.0" xmlns="http://www.w3.org/2000/svg"
 width="260.000000pt" height="260.000000pt" viewBox="0 0 260.000000 260.000000"
 preserveAspectRatio="xMidYMid meet">
<metadata>
Created by potrace 1.11, written by Peter Selinger 2001-2013
</metadata>
<g transform="translate(0.000000,260.000000) scale(0.100000,-0.100000)"
fill="#000000" stroke="none">
<path d="M715 1863 c-230 -15 -379 -92 -443 -232 -46 -100 -30 -251 36 -324
57 -64 153 -105 353 -153 144 -34 200 -59 212 -97 23 -72 -38 -110 -175 -109
-106 0 -198 22 -296 69 -41 19 -75 33 -76 31 -9 -11 -96 -214 -96 -224 0 -24
183 -95 280 -110 19 -2 46 -7 59 -10 13 -3 67 -5 120 -5 234 0 401 80 470 224
27 56 30 71 28 147 -2 73 -6 92 -30 132 -57 98 -124 133 -365 194 -185 47
-219 62 -229 102 -30 121 193 155 414 64 l72 -30 30 71 c59 145 64 158 54 168
-28 28 -198 75 -308 85 -27 3 -54 6 -60 7 -5 1 -28 1 -50 0z"/>
<path d="M1729 1845 c-316 -77 -502 -360 -443 -677 38 -204 179 -364 379 -433
75 -25 82 -26 195 -32 134 -6 227 12 336 67 98 49 185 131 163 152 -8 7 -53
48 -100 90 l-85 77 -40 -36 c-185 -168 -476 -91 -529 140 -22 97 -3 208 47
280 109 156 343 169 488 27 l32 -31 91 83 c51 46 95 88 100 93 11 14 -105 119
-161 145 -111 53 -153 62 -287 65 -86 2 -149 -1 -186 -10z"/>
</g>
</svg>
