<?xml version="1.0" standalone="no"?>
<!DOCTYPE svg PUBLIC "-//W3C//DTD SVG 20010904//EN"
 "http://www.w3.org/TR/2001/REC-SVG-20010904/DTD/svg10.dtd">
<svg version="1.0" xmlns="http://www.w3.org/2000/svg"
 width="300.000000pt" height="300.000000pt" viewBox="0 0 300.000000 300.000000"
 preserveAspectRatio="xMidYMid meet">
<metadata>
Created by potrace 1.11, written by Peter Selinger 2001-2013
</metadata>
<g transform="translate(0.000000,300.000000) scale(0.100000,-0.100000)"
fill="#000000" stroke="none">
<path d="M1380 2990 c-353 -27 -679 -179 -935 -435 -259 -259 -407 -580 -434
-941 -33 -442 121 -856 434 -1169 313 -313 727 -467 1169 -434 361 27 682 175
941 434 259 259 407 580 434 941 33 442 -121 856 -434 1169 -261 261 -577 406
-949 435 -66 5 -123 9 -126 8 -3 0 -48 -4 -100 -8z m-355 -902 c138 -29 263
-129 298 -239 9 -31 17 -68 17 -83 l0 -27 -137 3 -137 3 -8 32 c-30 115 -268
139 -323 33 -20 -40 -19 -72 5 -103 26 -33 76 -51 226 -82 208 -43 293 -83
346 -162 41 -60 51 -105 46 -207 -5 -105 -24 -151 -94 -226 -50 -53 -125 -93
-216 -115 -81 -19 -255 -19 -336 0 -173 41 -285 150 -307 299 l-7 46 146 0
c138 0 146 -1 146 -20 0 -28 56 -87 93 -99 63 -19 109 -22 165 -10 72 15 122
60 122 111 0 72 -47 97 -265 142 -210 44 -292 91 -346 202 -27 55 -32 74 -32
141 0 273 263 432 598 361z m1230 -9 c66 -20 165 -76 208 -117 66 -63 121
-172 134 -269 l6 -43 -145 0 -144 0 -12 44 c-43 163 -265 214 -384 89 -108
-113 -116 -412 -15 -544 45 -59 105 -89 179 -89 119 0 193 58 232 183 5 15 21
17 146 17 161 0 154 6 125 -105 -42 -161 -172 -284 -350 -331 -68 -19 -237
-18 -310 1 -150 39 -260 126 -325 259 -22 44 -47 113 -55 151 -19 90 -19 261
0 350 42 195 173 349 347 404 103 33 255 33 363 0z"/>
</g>
</svg>
